# xmcd CD database file
#
# Track frame offsets:
#	150
#	13623
#	29522
#	126346
#	141871
#	167445
#
# Disc length: 3380 seconds
#
# Revision: 0
# Processed by: cddbd v1.5.2PL0 Copyright (c) Steve Scherf et al.
# Submitted via: CDex 1.51
#
DISCID=4a0d3206
DTITLE=Dr. Frank Kinslow - Quantenheilung Alltag 1 CD1
DYEAR=2010
DGENRE=New Age
TTITLE0=Vorwort
TTITLE1=Einführung
TTITLE2=Quantenheilung lernen
TTITLE3=Das Eu-Gefühl
TTITLE4=Wann Sie Quantenheilung anwenden können
TTITLE5=QE und Gelsorgen
EXTD=YEAR: 2010
EXTT0=
EXTT1=
EXTT2=
EXTT3=
EXTT4=
EXTT5=
PLAYORDER=
